<svg width="22" height="20" viewBox="0 0 22 20" fill="none" xmlns="http://www.w3.org/2000/svg">
<mask id="mask0_2679_7022" style="mask-type:luminance" maskUnits="userSpaceOnUse" x="0" y="0" width="22" height="20">
<path d="M22 0.375H0V19.625H22V0.375Z" fill="white"/>
</mask>
<g mask="url(#mask0_2679_7022)">
<path d="M16.0411 1.11011C15.009 1.12416 13.9993 1.37628 13.1141 1.84102C12.2289 2.30576 11.4995 2.96667 10.9996 3.75699C10.4996 2.96667 9.77025 2.30576 8.88502 1.84102C7.9998 1.37628 6.99011 1.12416 5.95788 1.11011C4.31243 1.17266 2.76212 1.80251 1.6457 2.86204C0.52926 3.92158 -0.0625496 5.32468 -0.000445168 6.7648C-0.000445168 12.1989 10.0426 18.4752 10.4697 18.7415L10.9996 19.0696L11.5294 18.7415C11.9566 18.4768 21.9995 12.1989 21.9995 6.7648C22.0616 5.32468 21.4698 3.92158 20.3535 2.86204C19.237 1.80251 17.6867 1.17266 16.0411 1.11011ZM10.9996 17.0948C8.01763 15.1458 1.83288 10.3573 1.83288 6.7648C1.77023 5.74993 2.16873 4.75456 2.94146 3.99576C3.71421 3.23696 4.79852 2.77631 5.95788 2.71427C7.11725 2.77631 8.20155 3.23696 8.9743 3.99576C9.74705 4.75456 10.1456 5.74993 10.0829 6.7648H11.9162C11.8536 5.74993 12.2521 4.75456 13.0248 3.99576C13.7976 3.23696 14.8819 2.77631 16.0411 2.71427C17.2005 2.77631 18.2848 3.23696 19.0577 3.99576C19.8303 4.75456 20.2288 5.74993 20.1661 6.7648C20.1661 10.3589 13.9815 15.1458 10.9996 17.0948Z" fill="#686868"/>
</g>
</svg>
