<svg width="243" height="18" viewBox="0 0 243 18" fill="none" xmlns="http://www.w3.org/2000/svg">
<g clip-path="url(#clip0_2679_6997)">
<path d="M10.2014 4.808H0.481445V0.632H24.7694V4.808H15.0734V17H10.2014V4.808ZM39.2647 17.336C29.8807 17.336 25.8247 14.672 25.8247 8.816C25.8247 2.96 29.8807 0.296 39.2647 0.296C48.6487 0.296 52.7047 2.96 52.7047 8.816C52.7047 14.672 48.6487 17.336 39.2647 17.336ZM39.2647 13.16C45.8167 13.16 47.7367 11.984 47.7367 8.816C47.7367 5.648 45.8167 4.472 39.2647 4.472C32.6887 4.472 30.6967 5.648 30.6967 8.816C30.6967 11.984 32.6887 13.16 39.2647 13.16ZM73.3801 8.336V0.632H78.2521V9.368C78.2521 14.96 73.6441 17.264 66.4201 17.264C59.1961 17.264 54.5881 14.96 54.5881 9.368V0.632H59.4601V8.336C59.4601 11.84 61.5721 13.112 66.4201 13.112C71.2681 13.112 73.3801 11.84 73.3801 8.336ZM85.4814 17H80.6094V0.632H97.0014C101.033 0.632 103.841 2.048 103.841 6.344C103.841 9.944 101.705 11.672 98.0814 11.96L97.0254 11.984L98.3214 12.776L103.697 17H97.5774L91.6974 12.248H85.4814V17ZM85.4814 4.808V8.6H96.5214C98.1294 8.6 98.8014 8.072 98.8014 6.728C98.8014 5.264 98.1294 4.808 96.5214 4.808H85.4814ZM212.034 12.2V17H207.33V12.2H212.034ZM216.693 17H213.851V7.452H223.413C225.765 7.452 227.403 8.278 227.403 10.784C227.403 12.884 226.157 13.892 224.043 14.06L223.427 14.074L224.183 14.536L227.319 17H223.749L220.319 14.228H216.693V17ZM216.693 9.888V12.1H223.133C224.071 12.1 224.463 11.792 224.463 11.008C224.463 10.154 224.071 9.888 223.133 9.888H216.693ZM239.561 11.946V7.452H242.403V12.548C242.403 15.81 239.715 17.154 235.501 17.154C231.287 17.154 228.599 15.81 228.599 12.548V7.452H231.441V11.946C231.441 13.99 232.673 14.732 235.501 14.732C238.329 14.732 239.561 13.99 239.561 11.946Z" fill="#9D8EF3"/>
<path d="M114.803 4.808H105.083V0.632H129.371V4.808H119.675V17H114.803V4.808ZM149.716 8.336V0.632H154.588V9.368C154.588 14.96 149.98 17.264 142.756 17.264C135.532 17.264 130.924 14.96 130.924 9.368V0.632H135.796V8.336C135.796 11.84 137.908 13.112 142.756 13.112C147.604 13.112 149.716 11.84 149.716 8.336ZM161.817 17H156.945V0.632H173.337C177.369 0.632 180.177 2.048 180.177 6.344C180.177 9.944 178.041 11.672 174.417 11.96L173.361 11.984L174.657 12.776L180.033 17H173.913L168.033 12.248H161.817V17ZM161.817 4.808V8.6H172.857C174.465 8.6 175.137 8.072 175.137 6.728C175.137 5.264 174.465 4.808 172.857 4.808H161.817ZM201.021 8.336V0.632H205.893V9.368C205.893 14.96 201.285 17.264 194.061 17.264C186.837 17.264 182.229 14.96 182.229 9.368V0.632H187.101V8.336C187.101 11.84 189.213 13.112 194.061 13.112C198.909 13.112 201.021 11.84 201.021 8.336Z" fill="#FFA229"/>
</g>
<defs>
<clipPath id="clip0_2679_6997">
<rect width="243" height="18" fill="white"/>
</clipPath>
</defs>
</svg>
