<svg width="31" height="42" viewBox="0 0 31 42" fill="none" xmlns="http://www.w3.org/2000/svg">
<path d="M28.5337 16.5077L8.685 1.50018C7.69875 0.761426 6.55875 0.367676 5.385 0.367676C2.36625 0.367676 0 2.84268 0 6.00018V36.0002C0 39.1577 2.38125 41.6327 5.41875 41.6327C6.5925 41.6327 7.74 41.2427 8.7375 40.4927L28.455 25.5002C29.8875 24.4239 30.7463 22.7177 30.7463 20.9327C30.7425 19.1702 29.9362 17.5539 28.5337 16.5077ZM26.1938 22.5039L6.47625 37.4964C5.3775 38.3327 3.75 37.6989 3.75 36.0002V6.00018C3.75 4.77768 4.59375 4.11768 5.38875 4.11768C5.74875 4.11768 6.10125 4.24518 6.435 4.49643L26.2838 19.5039C26.9025 19.9652 26.9963 20.5989 26.9963 20.9364C26.9925 21.5514 26.7075 22.1252 26.1938 22.5039Z" fill="white"/>
</svg>
