<svg width="13" height="14" viewBox="0 0 13 14" fill="none" xmlns="http://www.w3.org/2000/svg">
<g clip-path="url(#clip0_2889_13186)">
<path d="M6.32262 0.822266C9.40038 0.822266 11.9043 3.34714 11.9043 6.45062C11.9043 7.79309 11.4356 9.0271 10.6547 9.99553L12.9915 12.3518L12.1749 13.1752L9.83812 10.8189C8.87777 11.6063 7.65398 12.079 6.32265 12.079C3.24487 12.079 0.74093 9.55411 0.74093 6.45062C0.74093 3.34714 3.24487 0.822266 6.32262 0.822266ZM6.32262 10.9145C8.76359 10.9145 10.7495 8.91199 10.7495 6.45062C10.7495 3.98925 8.76361 1.98675 6.32262 1.98675C3.88163 1.98675 1.89576 3.98925 1.89576 6.45062C1.89576 8.91199 3.88166 10.9145 6.32262 10.9145Z" fill="#9D8EF3"/>
</g>
<defs>
<clipPath id="clip0_2889_13186">
<rect width="12.2505" height="12.3529" fill="white" transform="matrix(-1 0 0 1 12.9915 0.822266)"/>
</clipPath>
</defs>
</svg>
