<svg width="22" height="22" viewBox="0 0 22 22" fill="none" xmlns="http://www.w3.org/2000/svg">
<g clip-path="url(#clip0_2679_7027)">
<mask id="mask0_2679_7027" style="mask-type:luminance" maskUnits="userSpaceOnUse" x="0" y="0" width="22" height="22">
<path d="M22 0H0V22H22V0Z" fill="white"/>
</mask>
<g mask="url(#mask0_2679_7027)">
<path d="M22.0001 20.7025L16.2599 14.9623C17.7509 13.1387 18.484 10.8117 18.3075 8.46274C18.131 6.11375 17.0585 3.92248 15.3117 2.34212C13.5648 0.761784 11.2774 -0.0866988 8.92254 -0.0278196C6.56768 0.0310596 4.32552 0.992797 2.65985 2.65847C0.99419 4.32413 0.0324537 6.56628 -0.0264253 8.92116C-0.0853046 11.276 0.763179 13.5634 2.34352 15.3103C3.92386 17.0571 6.11516 18.1297 8.46414 18.3062C10.8131 18.4827 13.1401 17.7496 14.9637 16.2585L20.7039 21.9986L22.0001 20.7025ZM9.16671 16.4986C7.71632 16.4986 6.29849 16.0685 5.09253 15.2628C3.88657 14.457 2.94664 13.3117 2.39159 11.9717C1.83655 10.6317 1.69133 9.15719 1.97429 7.73465C2.25724 6.31213 2.95567 5.00546 3.98127 3.97986C5.00684 2.95429 6.31352 2.25585 7.73605 1.9729C9.15857 1.68993 10.6331 1.83516 11.973 2.39021C13.3131 2.94524 14.4584 3.88517 15.2642 5.09113C16.07 6.29709 16.5001 7.71491 16.5001 9.16531C16.4979 11.1096 15.7246 12.9736 14.3497 14.3484C12.975 15.7231 11.111 16.4965 9.16671 16.4986Z" fill="#686868"/>
</g>
</g>
<defs>
<clipPath id="clip0_2679_7027">
<rect width="22" height="22" fill="white"/>
</clipPath>
</defs>
</svg>
