<svg width="22" height="22" viewBox="0 0 22 22" fill="none" xmlns="http://www.w3.org/2000/svg">
<path d="M21.9981 20.7025L16.258 14.9623C17.749 13.1387 18.482 10.8117 18.3056 8.46274C18.1291 6.11375 17.0566 3.92247 15.3097 2.34212C13.5629 0.761782 11.2755 -0.0867007 8.92059 -0.0278215C6.56573 0.0310577 4.32357 0.992795 2.6579 2.65846C0.992237 4.32413 0.0305006 6.56628 -0.0283784 8.92116C-0.0872577 11.276 0.761226 13.5634 2.34157 15.3103C3.92191 17.0571 6.1132 18.1297 8.46219 18.3062C10.8112 18.4827 13.1381 17.7496 14.9618 16.2585L20.702 21.9986L21.9981 20.7025ZM9.16476 16.4986C7.71436 16.4986 6.29654 16.0685 5.09058 15.2628C3.88462 14.457 2.94468 13.3116 2.38964 11.9717C1.8346 10.6317 1.68938 9.15719 1.97233 7.73465C2.25528 6.31213 2.95372 5.00546 3.97931 3.97986C5.00489 2.95428 6.31156 2.25585 7.7341 1.9729C9.15662 1.68993 10.6311 1.83516 11.9711 2.3902C13.3111 2.94523 14.4564 3.88517 15.2622 5.09113C16.068 6.29709 16.4981 7.71491 16.4981 9.16531C16.4959 11.1096 15.7226 12.9736 14.3478 14.3484C12.973 15.7231 11.109 16.4965 9.16476 16.4986Z" fill="#9D9D9D"/>
</svg>
